<?xml version="1.0" encoding="UTF-8"?>
<svg width="150px" height="32px" viewBox="0 0 150 32" version="1.1" xmlns="http://www.w3.org/2000/svg" xmlns:xlink="http://www.w3.org/1999/xlink">
    <!-- Generator: Sketch 51.3 (57544) - http://www.bohemiancoding.com/sketch -->
    <title>logo_kcsit</title>
    <desc>Created with Sketch.</desc>
    <defs>
        <polygon id="path-1" points="0 9.17669495 0 21.0820525 9.48227848 21.0820525 9.48227848 0.265890909"></polygon>
        <linearGradient x1="52.9323191%" y1="130.621538%" x2="50.0235872%" y2="50.72739%" id="linearGradient-3">
            <stop stop-color="#FEFEFE" offset="0%"></stop>
            <stop stop-color="#231F20" offset="100%"></stop>
        </linearGradient>
        <polygon id="path-4" points="0 0.0804848485 0 19.3619394 9.48227848 10.5241212 9.48227848 0.0804848485"></polygon>
        <linearGradient x1="0%" y1="50.0018663%" x2="99.9942983%" y2="50.0018663%" id="linearGradient-6">
            <stop stop-color="#FEFEFE" offset="0%"></stop>
            <stop stop-color="#231F20" offset="100%"></stop>
        </linearGradient>
        <polygon id="path-7" points="0.0840189873 14.2923636 8.87610759 23.2727273 21.9346519 23.2727273 0.163765823 0.804363636"></polygon>
        <linearGradient x1="35.2644513%" y1="99.8432414%" x2="54.7914905%" y2="34.5993481%" id="linearGradient-9">
            <stop stop-color="#E6E7E7" offset="0%"></stop>
            <stop stop-color="#231F20" offset="100%"></stop>
        </linearGradient>
        <polygon id="path-10" points="8.89889241 0.282666667 0.230696203 8.60993939 6.84825949 15.4404848 21.4803797 0.282666667"></polygon>
        <linearGradient x1="0.00179399544%" y1="49.999596%" x2="100.000848%" y2="49.999596%" id="linearGradient-12">
            <stop stop-color="#FEFEFE" offset="0%"></stop>
            <stop stop-color="#231F20" offset="100%"></stop>
        </linearGradient>
        <polygon id="path-13" points="0.323653846 0.766545455 26.6558654 0.766545455 26.6558654 31.8509091 0.323653846 31.8509091"></polygon>
        <polygon id="path-15" points="0 32 149.688462 32 149.688462 0.766545455 0 0.766545455"></polygon>
    </defs>
    <g id="Symbols" stroke="none" stroke-width="1" fill="none" fill-rule="evenodd">
        <g id="Header" transform="translate(-70.000000, -24.000000)">
            <g id="logo_kcsit">
                <g transform="translate(70.000000, 24.000000)">
                    <g id="Group-3" transform="translate(0.000000, 10.666667)">
                        <mask id="mask-2" fill="white">
                            <use xlink:href="#path-1"></use>
                        </mask>
                        <g id="Clip-2"></g>
                        <polygon id="Fill-1" fill="url(#linearGradient-3)" mask="url(#mask-2)" points="0 9.17669495 0 21.0820525 9.48227848 21.0820525 9.48227848 0.265890909"></polygon>
                    </g>
                    <g id="Group-6" transform="translate(0.000000, 0.969697)">
                        <mask id="mask-5" fill="white">
                            <use xlink:href="#path-4"></use>
                        </mask>
                        <g id="Clip-5"></g>
                        <polygon id="Fill-4" fill="url(#linearGradient-6)" mask="url(#mask-5)" points="0 0.0804848485 0 19.3619394 9.48227848 10.5241212 9.48227848 0.0804848485"></polygon>
                    </g>
                    <g id="Group-9" transform="translate(11.392405, 8.727273)">
                        <mask id="mask-8" fill="white">
                            <use xlink:href="#path-7"></use>
                        </mask>
                        <g id="Clip-8"></g>
                        <polygon id="Fill-7" fill="url(#linearGradient-9)" mask="url(#mask-8)" points="0.0840189873 14.2923636 8.87610759 23.2727273 21.9346519 23.2727273 0.163765823 0.804363636"></polygon>
                    </g>
                    <g id="Group-12" transform="translate(11.392405, 0.969697)">
                        <mask id="mask-11" fill="white">
                            <use xlink:href="#path-10"></use>
                        </mask>
                        <g id="Clip-11"></g>
                        <polygon id="Fill-10" fill="url(#linearGradient-12)" mask="url(#mask-11)" points="8.89889241 0.282666667 0.230696203 8.60993939 6.84825949 15.4404848 21.4803797 0.282666667"></polygon>
                    </g>
                    <g id="Group-28">
                        <g id="Group-15" transform="translate(49.038462, 0.000000)">
                            <mask id="mask-14" fill="white">
                                <use xlink:href="#path-13"></use>
                            </mask>
                            <g id="Clip-14"></g>
                            <path d="M26.6558654,27.2763636 C23.6313462,30.3265455 19.9924038,31.8509091 15.7361538,31.8509091 C11.4799038,31.8509091 7.84673077,30.3338182 4.83663462,27.2996364 C1.82798077,24.2654545 0.323653846,20.6014545 0.323653846,16.3090909 C0.323653846,12.0167273 1.82798077,8.35272727 4.83663462,5.31854545 C7.84673077,2.28290909 11.4799038,0.765818182 15.7361538,0.765818182 C19.9924038,0.765818182 23.6313462,2.27563636 26.6558654,5.29527273 L21.1967308,10.8007273 C19.6678846,9.29236364 17.8505769,8.53745455 15.7361538,8.53745455 C13.5914423,8.53745455 11.7726923,9.29236364 10.2755769,10.8007273 C8.77701923,12.3105455 8.02990385,14.1490909 8.02990385,16.3090909 C8.02990385,18.44 8.77701923,20.2683636 10.2755769,21.7927273 C11.7726923,23.3170909 13.5914423,24.0807273 15.7361538,24.0807273 C17.8505769,24.0807273 19.6678846,23.3098182 21.1967308,21.7709091 L26.6558654,27.2763636 Z" id="Fill-13" fill="#272527" mask="url(#mask-14)"></path>
                        </g>
                        <path d="M116.960625,17.1790545 C118.084183,18.8037818 118.643798,20.3863273 118.643798,21.9252364 C118.643798,24.7979636 117.629856,27.1194182 115.601971,28.8896 C113.571202,30.6597818 110.773125,31.5456 107.204856,31.5456 C102.312548,31.5456 98.210625,30.1681455 94.9019712,27.4103273 L99.6500481,21.7070545 C102.12649,23.1863273 104.486106,23.9281455 106.730337,23.9281455 C107.910144,23.9281455 108.93274,23.7899636 109.793798,23.5121455 C110.659183,23.2386909 111.090433,22.7383273 111.090433,22.0110545 C111.090433,21.3739636 110.500529,20.8939636 109.320721,20.5754182 L103.104375,18.9637818 C101.060625,18.5579636 99.3615865,17.5790545 98.0101442,16.0256 C96.6572596,14.4736 95.9808173,12.5361455 95.9808173,10.2132364 C95.9808173,7.86269091 97.0236058,5.75214545 99.110625,3.87869091 C101.197644,2.00669091 103.751971,1.07141818 106.773606,1.07141818 C111.492837,1.07141818 115.464952,2.29032727 118.687067,4.72814545 L113.897163,10.3877818 C111.853413,9.25614545 109.83851,8.69032727 107.853894,8.69032727 C106.239952,8.69032727 105.117837,8.87796364 104.486106,9.25614545 C103.85149,9.63432727 103.535625,10.0837818 103.535625,10.6059636 C103.535625,11.2139636 103.89476,11.6357818 104.614471,11.8685091 L111.305337,13.5223273 C113.953413,14.3339636 115.83851,15.5528727 116.960625,17.1790545" id="Fill-16" fill="#272527"></path>
                        <path d="M39.7352885,2.75578182 L39.7352885,29.0743273" id="Fill-18" fill="#272527"></path>
                        <mask id="mask-16" fill="white">
                            <use xlink:href="#path-15"></use>
                        </mask>
                        <g id="Clip-21"></g>
                        <polygon id="Fill-20" fill="#272527" mask="url(#mask-16)" points="39.2697115 29.0749091 40.2028846 29.0749091 40.2028846 2.75636364 39.2697115 2.75636364"></polygon>
                        <path d="M85.2989423,2.75578182 L85.2989423,29.0743273" id="Fill-22" fill="#272527" mask="url(#mask-16)"></path>
                        <polygon id="Fill-23" fill="#272527" mask="url(#mask-16)" points="84.8336538 29.0749091 85.7653846 29.0749091 85.7653846 2.75636364 84.8336538 2.75636364"></polygon>
                        <polygon id="Fill-24" fill="#272527" mask="url(#mask-16)" points="129.703846 31.3512727 133.625481 31.3512727 133.625481 15.5490909 129.703846 15.5490909"></polygon>
                        <polyline id="Fill-25" fill="#272527" mask="url(#mask-16)" points="142.965865 22.2529455 142.965865 31.3511273 139.042788 31.3511273 139.042788 15.5489455 142.965865 15.5489455 142.965865 18.9002182"></polyline>
                        <polygon id="Fill-26" fill="#272527" mask="url(#mask-16)" points="136.026923 19.584 145.766827 19.584 145.766827 15.5490909 136.026923 15.5490909"></polygon>
                        <polygon id="Fill-27" fill="#272527" mask="url(#mask-16)" points="145.766827 31.3512727 149.688462 31.3512727 149.688462 27.3963636 145.766827 27.3963636"></polygon>
                    </g>
                </g>
            </g>
        </g>
    </g>
</svg>