<?xml version="1.0" encoding="utf-8"?>
<!-- Generator: Adobe Illustrator 23.0.3, SVG Export Plug-In . SVG Version: 6.00 Build 0)  -->
<svg version="1.1" id="Layer_1" xmlns="http://www.w3.org/2000/svg" xmlns:xlink="http://www.w3.org/1999/xlink" x="0px" y="0px"
	 viewBox="0 0 282.2 81.2" style="enable-background:new 0 0 282.2 81.2;" xml:space="preserve">
<style type="text/css">
	.st0{fill:#00AEEF;}
	.st1{fill:#414042;}
</style>
<g>
	<g>
		<path class="st0" d="M6.8,37.9h6.4c0.2,2,0.9,3.4,1.9,4.2c1,0.8,2.5,1.2,4.5,1.2c3.8,0,5.7-1.6,5.7-4.7c0-1.4-0.4-2.5-1.1-3.2
			c-0.8-0.7-2-1.2-3.6-1.5l-3.4-0.6c-6.4-1.1-9.7-4.4-9.7-9.9c0-3.3,1.1-5.9,3.3-7.9c2.2-1.9,5.1-2.9,8.7-2.9c3.5,0,6.3,0.9,8.3,2.8
			c2,1.9,3.2,4.5,3.5,7.9h-6.5c-0.1-1.7-0.6-3-1.5-3.8c-0.9-0.8-2.2-1.2-3.9-1.2c-1.8,0-3.1,0.4-4,1.2c-0.9,0.8-1.3,1.9-1.3,3.3
			c0,1.2,0.4,2.2,1.2,2.9c0.8,0.7,2,1.2,3.7,1.6l3.8,0.7C29,29,32,32.4,32,38c0,3.6-1.1,6.3-3.4,8.2c-2.3,1.9-5.4,2.8-9.3,2.8
			c-3.8,0-6.8-1-8.9-2.9C8.2,44.2,7,41.5,6.8,37.9z"/>
		<path class="st0" d="M56.9,31v17.7h-6.2v-2.3c-0.9,0.9-1.8,1.6-2.8,2C47,48.8,45.8,49,44.4,49c-2.8,0-4.9-0.7-6.4-2.2
			c-1.5-1.5-2.3-3.5-2.3-6.1c0-2.4,0.8-4.3,2.4-5.7c1.6-1.4,3.9-2.1,6.8-2.1h5.7v-2.1c0-2.9-1.4-4.3-4.3-4.3c-1.2,0-2.2,0.3-2.9,0.9
			c-0.7,0.6-1.1,1.4-1.1,2.4v0.2h-5.9v-0.2c0-2.5,0.9-4.5,2.7-6s4.2-2.2,7.2-2.2c3.4,0,6,0.8,7.9,2.4C56,25.5,56.9,27.9,56.9,31z
			 M50.6,39.1v-1.9h-4.6c-2.7,0-4,1.1-4,3.3c0,2.2,1.3,3.4,3.9,3.4c1.7,0,2.9-0.4,3.6-1.2C50.2,41.9,50.6,40.7,50.6,39.1z"/>
		<path class="st0" d="M62.5,21.8h6.4v15.7c0,1.9,0.3,3.3,0.9,4.3c0.6,1,1.7,1.5,3.4,1.5s2.8-0.5,3.4-1.4c0.6-0.9,0.9-2.4,0.9-4.4
			V21.8h6.4v16c0,3.7-0.9,6.5-2.6,8.4c-1.8,1.9-4.4,2.8-8,2.8c-7.1,0-10.6-3.7-10.6-11.2V21.8z M81,11.5l-7.1,6.9h-5.5l5.6-6.9H81z"
			/>
		<path class="st0" d="M88.9,37.9v-5.3c0-3.7,0.8-6.5,2.5-8.3c1.6-1.8,3.8-2.7,6.4-2.7c2.7,0,4.8,1,6.3,3V13.1h6.4v35.6h-6.3v-2.5
			c-1.5,1.9-3.6,2.8-6.3,2.8c-2.6,0-4.7-0.9-6.4-2.8S88.9,41.6,88.9,37.9z M104,37.7v-4.9c0-1.8-0.4-3.2-1.2-4.2
			c-0.8-1-1.9-1.4-3.2-1.4c-2.9,0-4.3,1.9-4.3,5.6v4.9c0,3.8,1.4,5.6,4.1,5.6c1.4,0,2.6-0.5,3.4-1.4C103.6,40.9,104,39.5,104,37.7z"
			/>
		<path class="st0" d="M121.8,37.9c0,2,0.4,3.4,1.3,4.3c0.9,0.9,2.2,1.3,3.8,1.3c1.3,0,2.3-0.3,3-0.8c0.7-0.5,1.1-1.3,1.2-2.2
			l0.1-0.2h6.1v0.3c0,2.5-0.9,4.6-2.8,6.1c-1.9,1.6-4.5,2.3-7.7,2.3c-3.4,0-6.2-1-8.2-3c-2-2-3-5-3-9.2v-3.3c0-4,1-7.1,2.9-9.1
			c2-2,4.7-3,8.1-3c3.4,0,6.1,1,8,3c2,2,3,5,3,9v3.6h-15.7V37.9z M121.8,32.6v0.2h9.3v-0.7c0-3.4-1.5-5.1-4.6-5.1
			c-1.5,0-2.7,0.4-3.5,1.3C122.2,29.2,121.8,30.6,121.8,32.6z"/>
		<path class="st0" d="M165,33.1c0,0,4-1.6,6.4-1c1.6,0.4,0.9,2.7,0,4.7c-1,2.1-2.8,6-1.4,8.8c1.2,2.4,3.5,3,5.3,2.8
			c1.4-0.2,4.3-1.2,4.8-4.8c0.4-2.5-0.4-4.9-1-6.9c-0.4-1.5-1.1-4.4,0-4.7c1.1-0.3,3.7,0.4,6.4,1.4c0,0-4.1-0.9-5.2-0.7
			c-1,0.1-0.7,1.1-0.4,2.3c0.2,1,1.6,4.8,1.7,6.8c0.1,2.2-0.2,5.5-3.1,7.3c-2.4,1.5-6.7,1.6-8.9-0.9c-1.9-2.2-2.2-4.6-1.5-7.4
			c0.7-2.6,2.7-6.3,2.9-7.1C171.2,33,170.2,32.4,165,33.1z"/>
	</g>
	<g>
		<path class="st1" d="M147.1,13.1l7,24.6l7-24.6h7.1l-11.4,35.6h-5.4L140,13.1H147.1z"/>
		<path class="st1" d="M208.9,31v17.7h-6.2v-2.3c-0.9,0.9-1.8,1.6-2.8,2c-0.9,0.4-2.1,0.6-3.6,0.6c-2.8,0-4.9-0.7-6.4-2.2
			c-1.5-1.5-2.3-3.5-2.3-6.1c0-2.4,0.8-4.3,2.4-5.7c1.6-1.4,3.9-2.1,6.8-2.1h5.7v-2.1c0-2.9-1.4-4.3-4.3-4.3c-1.2,0-2.2,0.3-2.9,0.9
			c-0.7,0.6-1.1,1.4-1.1,2.4v0.2h-5.9v-0.2c0-2.5,0.9-4.5,2.7-6c1.8-1.5,4.2-2.2,7.2-2.2c3.4,0,6,0.8,7.9,2.4
			C208,25.5,208.9,27.9,208.9,31z M206.2,11.5l-7.1,6.9h-5.5l5.6-6.9H206.2z M202.6,39.1v-1.9h-4.6c-2.7,0-4,1.1-4,3.3
			c0,2.2,1.3,3.4,3.9,3.4c1.7,0,2.9-0.4,3.6-1.2C202.2,41.9,202.6,40.7,202.6,39.1z"/>
		<path class="st1" d="M218.2,21.8l5.2,17l5.2-17h6.8L226,48.7h-5.3l-9.3-26.9H218.2z"/>
		<path class="st1" d="M243.4,37.9c0,2,0.4,3.4,1.3,4.3c0.9,0.9,2.2,1.3,3.8,1.3c1.3,0,2.3-0.3,3-0.8c0.7-0.5,1.1-1.3,1.2-2.2
			l0.1-0.2h6.1v0.3c0,2.5-0.9,4.6-2.8,6.1c-1.9,1.6-4.5,2.3-7.7,2.3c-3.4,0-6.2-1-8.2-3c-2-2-3-5-3-9.2v-3.3c0-4,1-7.1,2.9-9.1
			c2-2,4.7-3,8.1-3c3.4,0,6.1,1,8,3c2,2,3,5,3,9v3.6h-15.7V37.9z M243.4,32.6v0.2h9.3v-0.7c0-3.4-1.5-5.1-4.6-5.1
			c-1.5,0-2.7,0.4-3.5,1.3C243.8,29.2,243.4,30.6,243.4,32.6z"/>
		<path class="st1" d="M264.2,40.5V13.1h6.4v27.1c0,1.1,0.2,1.9,0.6,2.4c0.4,0.5,1,0.7,1.9,0.7h2.2v5.5h-2.9c-2.6,0-4.6-0.7-6-2.1
			C265,45.2,264.2,43.2,264.2,40.5z"/>
		<path class="st1" d="M177.2,25.1c0.5-10.3,5.2-19.7,5.2-19.7c-8.2,11.3-7.7,23.1-8.5,27c-0.7,3.9-1.2,5.1-2.1,7.2
			c-0.5,1.2-0.7,2.2-0.8,2.8c0,0.1,0,0.1,0,0.2c0,0.3,0,0.5,0,0.6c0,0,0,0.1,0,0.1c0,0,0,0.1,0,0.1l0,0c0.1,0.5,0.2,0.9,0.4,1.4
			c1,1.9,3.3,2.6,5.1,1.5c1.1-0.6,1.7-1.7,1.9-2.9l0,0c0,0,0-0.1,0-0.1c0,0,0-0.1,0-0.1C178.9,39.4,176.8,35.9,177.2,25.1z"/>
	</g>
	<g>
		<path class="st1" d="M11.3,62.6v10.5h-1.2V62.6H6.8v-1.1h7.9v1.1H11.3z"/>
		<path class="st1" d="M16.1,64.6v1.1c0.2-0.4,0.5-0.7,0.9-1c0.4-0.2,0.8-0.3,1.3-0.3c0.2,0,0.4,0,0.6,0.1v1.1
			c-0.3-0.1-0.6-0.1-0.9-0.1c-0.6,0-1.1,0.2-1.4,0.6c-0.4,0.4-0.5,0.9-0.5,1.6v5.4h-1.1v-8.6H16.1z"/>
		<path class="st1" d="M26.5,67.3v5.8h-1.1v-0.9c-0.3,0.3-0.6,0.6-1,0.8c-0.4,0.2-0.8,0.2-1.4,0.2c-0.9,0-1.6-0.2-2.1-0.6
			c-0.5-0.4-0.7-1.1-0.7-1.9c0-0.8,0.2-1.4,0.8-1.8c0.5-0.4,1.2-0.6,2.1-0.6h2.3v-1c0-0.6-0.2-1.1-0.5-1.4c-0.3-0.3-0.8-0.5-1.4-0.5
			c-0.6,0-1,0.1-1.4,0.4c-0.3,0.3-0.5,0.6-0.5,1.1V67h-1.1v-0.1c0-0.7,0.3-1.3,0.8-1.8s1.3-0.7,2.2-0.7c1,0,1.8,0.2,2.3,0.7
			C26.2,65.7,26.5,66.4,26.5,67.3z M25.3,70.3v-1.1h-2.1c-1.3,0-1.9,0.5-1.9,1.6c0,1.1,0.6,1.6,1.9,1.6c0.8,0,1.3-0.2,1.6-0.5
			S25.3,71,25.3,70.3z"/>
		<path class="st1" d="M30.1,64.6v1c0.2-0.4,0.6-0.7,1-0.9c0.4-0.2,0.8-0.3,1.3-0.3c0.9,0,1.6,0.3,2.1,0.8s0.7,1.3,0.7,2.2v5.6h-1.1
			v-5.4c0-0.7-0.2-1.2-0.5-1.6c-0.3-0.4-0.8-0.6-1.5-0.6c-0.6,0-1.1,0.2-1.5,0.6c-0.4,0.4-0.5,0.9-0.5,1.6v5.4H29v-8.6H30.1z"/>
		<path class="st1" d="M37.4,70.8L37.4,70.8l1.1-0.1v0.1c0,0.5,0.2,0.8,0.5,1.1c0.4,0.3,0.9,0.4,1.5,0.4c0.6,0,1.1-0.1,1.5-0.4
			c0.4-0.3,0.5-0.6,0.5-1.1c0-0.4-0.1-0.7-0.4-0.9c-0.3-0.2-0.7-0.4-1.2-0.5l-1.1-0.2c-0.8-0.1-1.4-0.4-1.8-0.7
			c-0.4-0.3-0.6-0.9-0.6-1.5c0-0.7,0.3-1.3,0.8-1.8c0.6-0.4,1.3-0.7,2.1-0.7c0.9,0,1.7,0.2,2.3,0.7s0.8,1,0.8,1.7v0.1h-1.1v-0.1
			c0-0.5-0.2-0.8-0.5-1.1c-0.3-0.3-0.8-0.4-1.4-0.4c-0.6,0-1.1,0.1-1.4,0.4c-0.3,0.3-0.5,0.6-0.5,1.1c0,0.4,0.1,0.7,0.4,0.9
			c0.2,0.2,0.6,0.4,1.1,0.4l1.1,0.2c0.8,0.2,1.5,0.4,1.9,0.8s0.6,0.9,0.6,1.5c0,0.8-0.3,1.4-0.9,1.9c-0.6,0.4-1.4,0.7-2.3,0.7
			c-0.9,0-1.7-0.2-2.2-0.7C37.6,72.1,37.4,71.5,37.4,70.8z"/>
		<path class="st1" d="M46.8,64.6v1.2c0.2-0.4,0.5-0.8,0.9-1c0.4-0.2,0.8-0.3,1.3-0.3c0.9,0,1.6,0.3,2.1,0.8
			c0.6,0.6,0.8,1.4,0.8,2.6v1.8c0,1.2-0.3,2.1-0.8,2.7c-0.5,0.6-1.2,0.8-2.1,0.8c-1.1,0-1.8-0.4-2.3-1.2v3.7h-1.1V64.6H46.8z
			 M50.8,68.1c0-1.7-0.7-2.5-2-2.5c-0.7,0-1.2,0.2-1.6,0.7c-0.3,0.5-0.5,1.1-0.5,1.9v1.5c0,0.8,0.2,1.4,0.5,1.8
			c0.4,0.5,0.9,0.7,1.6,0.7c1.3,0,1.9-0.8,1.9-2.5V68.1z"/>
		<path class="st1" d="M54.2,70.9v-9.4h1.1v9.3c0,0.4,0.1,0.8,0.3,1c0.2,0.2,0.4,0.3,0.8,0.3h0.7v1h-0.8c-0.7,0-1.2-0.2-1.6-0.6
			S54.2,71.6,54.2,70.9z"/>
		<path class="st1" d="M64.7,67.3v5.8h-1.1v-0.9c-0.3,0.3-0.6,0.6-1,0.8c-0.4,0.2-0.8,0.2-1.4,0.2c-0.9,0-1.6-0.2-2.1-0.6
			c-0.5-0.4-0.7-1.1-0.7-1.9c0-0.8,0.2-1.4,0.8-1.8c0.5-0.4,1.2-0.6,2.1-0.6h2.3v-1c0-0.6-0.2-1.1-0.5-1.4c-0.3-0.3-0.8-0.5-1.4-0.5
			c-0.6,0-1,0.1-1.4,0.4s-0.5,0.6-0.5,1.1V67h-1.1v-0.1c0-0.7,0.3-1.3,0.8-1.8s1.3-0.7,2.2-0.7c1,0,1.8,0.2,2.3,0.7
			C64.4,65.7,64.7,66.4,64.7,67.3z M63.5,70.3v-1.1h-2.1c-1.3,0-1.9,0.5-1.9,1.6c0,1.1,0.6,1.6,1.9,1.6c0.8,0,1.3-0.2,1.6-0.5
			C63.4,71.5,63.5,71,63.5,70.3z"/>
		<path class="st1" d="M68.4,64.6v1c0.2-0.4,0.6-0.7,1-0.9c0.4-0.2,0.8-0.3,1.3-0.3c0.9,0,1.6,0.3,2.1,0.8c0.5,0.5,0.7,1.3,0.7,2.2
			v5.6h-1.1v-5.4c0-0.7-0.2-1.2-0.5-1.6c-0.3-0.4-0.8-0.6-1.5-0.6c-0.6,0-1.1,0.2-1.5,0.6c-0.4,0.4-0.5,0.9-0.5,1.6v5.4h-1.1v-8.6
			H68.4z"/>
		<path class="st1" d="M77.9,71c0,0.8,0.4,1.2,1.1,1.2h0.7v1h-0.9c-0.7,0-1.2-0.2-1.5-0.6c-0.4-0.4-0.5-0.9-0.5-1.6v-5.5h-1.3v-0.9
			h1.3v-2l1.2-0.5v2.5h1.9v0.9h-1.9V71z"/>
		<path class="st1" d="M82.7,69.6c0,1,0.2,1.6,0.6,2c0.4,0.4,0.9,0.6,1.6,0.6c0.6,0,1.1-0.1,1.4-0.4c0.3-0.3,0.5-0.7,0.5-1.2v-0.1
			h1.1v0.1c0,0.8-0.3,1.4-0.8,1.9c-0.6,0.5-1.3,0.7-2.3,0.7c-1,0-1.8-0.3-2.4-0.9c-0.6-0.6-0.9-1.5-0.9-2.8v-1.5
			c0-1.2,0.3-2.1,0.9-2.7c0.6-0.6,1.4-0.9,2.4-0.9c1,0,1.8,0.3,2.4,0.9c0.6,0.6,0.9,1.5,0.9,2.7v1h-5.3V69.6z M82.7,68.1v0.2h4.2
			v-0.3c0-0.9-0.2-1.5-0.6-1.9c-0.4-0.4-0.9-0.5-1.5-0.5c-0.6,0-1.2,0.2-1.5,0.6C82.9,66.5,82.7,67.1,82.7,68.1z"/>
		<path class="st1" d="M93.8,68.8v-3c0-1.5,0.4-2.7,1.1-3.4c0.7-0.7,1.7-1.1,3-1.1c0.8,0,1.5,0.1,2.1,0.4c0.6,0.3,1.1,0.7,1.4,1.2
			c0.3,0.5,0.5,1.2,0.5,1.9V65h-1.2v-0.1c0-0.8-0.2-1.4-0.7-1.8s-1.2-0.7-2-0.7c-0.9,0-1.6,0.3-2.1,0.8c-0.5,0.5-0.7,1.4-0.7,2.6v3
			c0,2.2,1,3.3,2.9,3.3c0.8,0,1.5-0.2,2-0.7c0.5-0.4,0.7-1,0.7-1.8v-0.1h1.2v0.1c0,1.1-0.4,2-1.1,2.6c-0.7,0.6-1.7,1-2.9,1
			c-1.2,0-2.2-0.4-3-1.1C94.2,71.5,93.8,70.4,93.8,68.8z"/>
		<path class="st1" d="M110.1,67.3v5.8H109v-0.9c-0.3,0.3-0.6,0.6-1,0.8c-0.4,0.2-0.8,0.2-1.4,0.2c-0.9,0-1.6-0.2-2.1-0.6
			c-0.5-0.4-0.7-1.1-0.7-1.9c0-0.8,0.2-1.4,0.8-1.8c0.5-0.4,1.2-0.6,2.1-0.6h2.3v-1c0-0.6-0.2-1.1-0.5-1.4c-0.3-0.3-0.8-0.5-1.4-0.5
			c-0.6,0-1,0.1-1.4,0.4s-0.5,0.6-0.5,1.1V67H104v-0.1c0-0.7,0.3-1.3,0.8-1.8c0.5-0.4,1.3-0.7,2.2-0.7c1,0,1.8,0.2,2.3,0.7
			C109.8,65.7,110.1,66.4,110.1,67.3z M108.9,70.3v-1.1h-2.1c-1.3,0-1.9,0.5-1.9,1.6c0,1.1,0.6,1.6,1.9,1.6c0.8,0,1.3-0.2,1.6-0.5
			C108.8,71.5,108.9,71,108.9,70.3z"/>
		<path class="st1" d="M113.8,64.6v1.2c0.2-0.4,0.5-0.8,0.9-1c0.4-0.2,0.8-0.3,1.3-0.3c0.9,0,1.6,0.3,2.1,0.8
			c0.6,0.6,0.8,1.4,0.8,2.6v1.8c0,1.2-0.3,2.1-0.8,2.7c-0.5,0.6-1.2,0.8-2.1,0.8c-1.1,0-1.8-0.4-2.3-1.2v3.7h-1.1V64.6H113.8z
			 M117.8,68.1c0-1.7-0.7-2.5-2-2.5c-0.7,0-1.2,0.2-1.6,0.7c-0.3,0.5-0.5,1.1-0.5,1.9v1.5c0,0.8,0.2,1.4,0.5,1.8
			c0.4,0.5,0.9,0.7,1.6,0.7c1.3,0,1.9-0.8,1.9-2.5V68.1z"/>
		<path class="st1" d="M122.6,61.7v1.5h-1.2v-1.5H122.6z M122.5,64.6v8.6h-1.1v-8.6H122.5z"/>
		<path class="st1" d="M125.2,70.9v-9.4h1.1v9.3c0,0.4,0.1,0.8,0.3,1c0.2,0.2,0.4,0.3,0.8,0.3h0.7v1h-0.8c-0.7,0-1.2-0.2-1.6-0.6
			C125.4,72.2,125.2,71.6,125.2,70.9z"/>
		<path class="st1" d="M135.7,67.3v5.8h-1.1v-0.9c-0.3,0.3-0.6,0.6-1,0.8c-0.4,0.2-0.8,0.2-1.4,0.2c-0.9,0-1.6-0.2-2.1-0.6
			c-0.5-0.4-0.7-1.1-0.7-1.9c0-0.8,0.2-1.4,0.8-1.8c0.5-0.4,1.2-0.6,2.1-0.6h2.3v-1c0-0.6-0.2-1.1-0.5-1.4c-0.3-0.3-0.8-0.5-1.4-0.5
			c-0.6,0-1,0.1-1.4,0.4c-0.3,0.3-0.5,0.6-0.5,1.1V67h-1.1v-0.1c0-0.7,0.3-1.3,0.8-1.8s1.3-0.7,2.2-0.7c1,0,1.8,0.2,2.3,0.7
			C135.4,65.7,135.7,66.4,135.7,67.3z M134.5,70.3v-1.1h-2.1c-1.3,0-1.9,0.5-1.9,1.6c0,1.1,0.6,1.6,1.9,1.6c0.8,0,1.3-0.2,1.6-0.5
			C134.3,71.5,134.5,71,134.5,70.3z"/>
		<path class="st1" d="M139.3,64.6v1.1c0.2-0.4,0.5-0.7,0.9-1c0.4-0.2,0.8-0.3,1.3-0.3c0.2,0,0.4,0,0.6,0.1v1.1
			c-0.3-0.1-0.6-0.1-0.9-0.1c-0.6,0-1.1,0.2-1.4,0.6c-0.4,0.4-0.5,0.9-0.5,1.6v5.4h-1.1v-8.6H139.3z"/>
		<path class="st1" d="M147.3,69.7V68c0-1.2,0.3-2.1,0.8-2.7c0.5-0.6,1.2-0.9,2.1-0.9c1,0,1.8,0.4,2.3,1.3v-4.3h1.2v11.6h-1.2V72
			c-0.2,0.4-0.5,0.7-0.9,0.9c-0.4,0.2-0.9,0.3-1.4,0.3c-0.8,0-1.5-0.3-2.1-0.9C147.5,71.8,147.3,71,147.3,69.7z M152.5,69.7v-1.5
			c0-0.8-0.2-1.4-0.5-1.9c-0.3-0.5-0.9-0.7-1.6-0.7c-1.3,0-2,0.8-2,2.5v1.6c0,1.7,0.6,2.5,1.9,2.5c0.7,0,1.2-0.2,1.6-0.7
			C152.3,71,152.5,70.4,152.5,69.7z"/>
		<path class="st1" d="M157.1,69.6c0,1,0.2,1.6,0.6,2c0.4,0.4,0.9,0.6,1.6,0.6c0.6,0,1.1-0.1,1.4-0.4c0.3-0.3,0.5-0.7,0.5-1.2v-0.1
			h1.1v0.1c0,0.8-0.3,1.4-0.8,1.9c-0.6,0.5-1.3,0.7-2.3,0.7c-1,0-1.8-0.3-2.4-0.9c-0.6-0.6-0.9-1.5-0.9-2.8v-1.5
			c0-1.2,0.3-2.1,0.9-2.7c0.6-0.6,1.4-0.9,2.4-0.9c1,0,1.8,0.3,2.4,0.9c0.6,0.6,0.9,1.5,0.9,2.7v1h-5.3V69.6z M157.1,68.1v0.2h4.2
			v-0.3c0-0.9-0.2-1.5-0.6-1.9c-0.4-0.4-0.9-0.5-1.5-0.5c-0.6,0-1.2,0.2-1.5,0.6C157.2,66.5,157.1,67.1,157.1,68.1z"/>
		<path class="st1" d="M168.9,71.4c-0.3-0.6-0.5-1.3-0.5-2v-7.8h1.2v7.7c0,0.9,0.2,1.6,0.8,2.1s1.2,0.8,2,0.8c0.8,0,1.5-0.3,2-0.8
			c0.5-0.5,0.8-1.2,0.8-2.1v-7.7h1.2v7.8c0,0.8-0.2,1.4-0.5,2c-0.3,0.6-0.8,1-1.4,1.4c-0.6,0.3-1.3,0.5-2.1,0.5s-1.5-0.2-2.1-0.5
			C169.8,72.4,169.3,72,168.9,71.4z M174.2,58.3l-2,2.1h-1.1l1.7-2.1H174.2z"/>
		<path class="st1" d="M179.1,70.9v-9.4h1.1v9.3c0,0.4,0.1,0.8,0.3,1c0.2,0.2,0.4,0.3,0.8,0.3h0.7v1h-0.8c-0.7,0-1.2-0.2-1.6-0.6
			S179.1,71.6,179.1,70.9z"/>
		<path class="st1" d="M185.5,71c0,0.8,0.4,1.2,1.1,1.2h0.7v1h-0.9c-0.7,0-1.2-0.2-1.5-0.6c-0.4-0.4-0.5-0.9-0.5-1.6v-5.5H183v-0.9
			h1.3v-2l1.2-0.5v2.5h1.9v0.9h-1.9V71z"/>
		<path class="st1" d="M190.7,61.7v1.5h-1.2v-1.5H190.7z M190.7,64.6v8.6h-1.1v-8.6H190.7z"/>
		<path class="st1" d="M194.5,64.6v1c0.2-0.4,0.6-0.7,1-0.9c0.4-0.2,0.8-0.3,1.3-0.3c0.6,0,1.1,0.1,1.5,0.4c0.4,0.2,0.7,0.6,1,1.1
			c0.6-1,1.4-1.4,2.6-1.4c0.9,0,1.6,0.3,2.1,0.8c0.5,0.5,0.8,1.3,0.8,2.2v5.6h-1.1v-5.4c0-0.7-0.2-1.2-0.5-1.6
			c-0.3-0.4-0.8-0.6-1.4-0.6c-0.6,0-1.1,0.2-1.5,0.6c-0.4,0.4-0.5,0.9-0.5,1.6v5.5h-1.2v-5.4c0-0.7-0.2-1.2-0.5-1.6
			c-0.3-0.4-0.8-0.6-1.4-0.6c-0.6,0-1.1,0.2-1.5,0.6c-0.4,0.4-0.5,0.9-0.5,1.6v5.4h-1.1v-8.6H194.5z"/>
		<path class="st1" d="M213.1,67.3v5.8H212v-0.9c-0.3,0.3-0.6,0.6-1,0.8c-0.4,0.2-0.8,0.2-1.4,0.2c-0.9,0-1.6-0.2-2.1-0.6
			c-0.5-0.4-0.7-1.1-0.7-1.9c0-0.8,0.2-1.4,0.8-1.8c0.5-0.4,1.2-0.6,2.1-0.6h2.3v-1c0-0.6-0.2-1.1-0.5-1.4c-0.3-0.3-0.8-0.5-1.4-0.5
			c-0.6,0-1,0.1-1.4,0.4c-0.3,0.3-0.5,0.6-0.5,1.1V67h-1.1v-0.1c0-0.7,0.3-1.3,0.8-1.8c0.5-0.4,1.3-0.7,2.2-0.7c1,0,1.8,0.2,2.3,0.7
			C212.9,65.7,213.1,66.4,213.1,67.3z M212,70.3v-1.1h-2.1c-1.3,0-1.9,0.5-1.9,1.6c0,1.1,0.6,1.6,1.9,1.6c0.8,0,1.3-0.2,1.6-0.5
			C211.8,71.5,212,71,212,70.3z"/>
		<path class="st1" d="M219.2,68.8v-3c0-1.5,0.4-2.7,1.1-3.4c0.7-0.7,1.7-1.1,3-1.1c0.8,0,1.5,0.1,2.1,0.4c0.6,0.3,1.1,0.7,1.4,1.2
			c0.3,0.5,0.5,1.1,0.5,1.8V65H226v-0.1c0-0.7-0.2-1.3-0.7-1.8c-0.5-0.4-1.2-0.7-2-0.7c-0.9,0-1.6,0.3-2.1,0.8
			c-0.5,0.5-0.7,1.4-0.7,2.6v3c0,2.2,1,3.3,2.9,3.3c0.9,0,1.6-0.2,2-0.7c0.5-0.5,0.7-1.3,0.7-2.3v-0.9h-2.8v-1.1h4v1.7
			c0,1.5-0.4,2.6-1.1,3.3c-0.7,0.7-1.7,1-2.9,1c-1.2,0-2.2-0.4-3-1.1C219.6,71.5,219.2,70.4,219.2,68.8z"/>
		<path class="st1" d="M230.5,69.6c0,1,0.2,1.6,0.6,2c0.4,0.4,0.9,0.6,1.6,0.6c0.6,0,1.1-0.1,1.4-0.4c0.3-0.3,0.5-0.7,0.5-1.2v-0.1
			h1.1v0.1c0,0.8-0.3,1.4-0.8,1.9c-0.6,0.5-1.3,0.7-2.3,0.7c-1,0-1.8-0.3-2.4-0.9c-0.6-0.6-0.9-1.5-0.9-2.8v-1.5
			c0-1.2,0.3-2.1,0.9-2.7c0.6-0.6,1.4-0.9,2.4-0.9c1,0,1.8,0.3,2.4,0.9c0.6,0.6,0.9,1.5,0.9,2.7v1h-5.3V69.6z M230.5,68.1v0.2h4.2
			v-0.3c0-0.9-0.2-1.5-0.6-1.9c-0.4-0.4-0.9-0.5-1.5-0.5c-0.6,0-1.2,0.2-1.5,0.6C230.7,66.5,230.5,67.1,230.5,68.1z"/>
		<path class="st1" d="M239.3,64.6v1.1c0.2-0.4,0.5-0.7,0.9-1c0.4-0.2,0.8-0.3,1.3-0.3c0.2,0,0.4,0,0.6,0.1v1.1
			c-0.3-0.1-0.6-0.1-0.9-0.1c-0.6,0-1.1,0.2-1.4,0.6c-0.4,0.4-0.5,0.9-0.5,1.6v5.4h-1.1v-8.6H239.3z"/>
		<path class="st1" d="M249.7,67.3v5.8h-1.1v-0.9c-0.3,0.3-0.6,0.6-1,0.8c-0.4,0.2-0.8,0.2-1.4,0.2c-0.9,0-1.6-0.2-2.1-0.6
			c-0.5-0.4-0.7-1.1-0.7-1.9c0-0.8,0.2-1.4,0.8-1.8c0.5-0.4,1.2-0.6,2.1-0.6h2.3v-1c0-0.6-0.2-1.1-0.5-1.4c-0.3-0.3-0.8-0.5-1.4-0.5
			c-0.6,0-1,0.1-1.4,0.4c-0.3,0.3-0.5,0.6-0.5,1.1V67h-1.1v-0.1c0-0.7,0.3-1.3,0.8-1.8c0.5-0.4,1.3-0.7,2.2-0.7c1,0,1.8,0.2,2.3,0.7
			C249.4,65.7,249.7,66.4,249.7,67.3z M248.5,70.3v-1.1h-2.1c-1.3,0-1.9,0.5-1.9,1.6c0,1.1,0.6,1.6,1.9,1.6c0.8,0,1.3-0.2,1.6-0.5
			C248.4,71.5,248.5,71,248.5,70.3z"/>
		<path class="st1" d="M257.3,67.3c0-0.6-0.2-1-0.5-1.3c-0.4-0.3-0.8-0.5-1.5-0.5c-0.7,0-1.2,0.2-1.6,0.6c-0.4,0.4-0.6,1-0.6,2v1.6
			c0,0.9,0.2,1.6,0.6,2c0.4,0.4,0.9,0.6,1.6,0.6c0.6,0,1.1-0.2,1.5-0.5c0.4-0.3,0.5-0.8,0.5-1.3v-0.1h1.1v0.1c0,0.7-0.2,1.3-0.6,1.8
			c-0.4,0.5-1,0.8-1.7,1l-0.8,2.5h-1.2l0.9-2.4c-1,0-1.7-0.3-2.3-0.9c-0.6-0.6-0.8-1.4-0.8-2.6V68c0-1.2,0.3-2.1,0.9-2.7
			c0.6-0.6,1.4-0.8,2.4-0.8c1,0,1.8,0.3,2.3,0.8c0.6,0.5,0.9,1.2,0.9,2.1v0.1L257.3,67.3L257.3,67.3z"/>
		<path class="st1" d="M266.6,67.3v5.8h-1.1v-0.9c-0.3,0.3-0.6,0.6-1,0.8c-0.4,0.2-0.8,0.2-1.4,0.2c-0.9,0-1.6-0.2-2.1-0.6
			c-0.5-0.4-0.7-1.1-0.7-1.9c0-0.8,0.2-1.4,0.8-1.8c0.5-0.4,1.2-0.6,2.1-0.6h2.3v-1c0-0.6-0.2-1.1-0.5-1.4c-0.3-0.3-0.8-0.5-1.4-0.5
			c-0.6,0-1,0.1-1.4,0.4s-0.5,0.6-0.5,1.1V67h-1.1v-0.1c0-0.7,0.3-1.3,0.8-1.8s1.3-0.7,2.2-0.7c1,0,1.8,0.2,2.3,0.7
			C266.3,65.7,266.6,66.4,266.6,67.3z M265.4,70.3v-1.1h-2.1c-1.3,0-1.9,0.5-1.9,1.6c0,1.1,0.6,1.6,1.9,1.6c0.8,0,1.3-0.2,1.6-0.5
			S265.4,71,265.4,70.3z M262,62c0.2-0.1,0.4-0.2,0.6-0.2c0.2,0,0.3,0,0.5,0.1s0.3,0.1,0.5,0.3c0.2,0.1,0.3,0.2,0.4,0.2
			c0.1,0.1,0.3,0.1,0.4,0.1c0.2,0,0.4,0,0.5-0.1c0.2-0.1,0.3-0.3,0.6-0.5v1c-0.4,0.4-0.7,0.6-1.2,0.6c-0.2,0-0.4,0-0.5-0.1
			c-0.1-0.1-0.3-0.1-0.5-0.3c0,0-0.1-0.1-0.2-0.1c-0.1-0.1-0.2-0.1-0.3-0.1c-0.1,0-0.2,0-0.3,0c-0.2,0-0.4,0-0.6,0.1
			c-0.2,0.1-0.3,0.3-0.6,0.5v-1C261.7,62.3,261.9,62.1,262,62z"/>
		<path class="st1" d="M268.8,69.7V68c0-1.2,0.3-2.1,0.9-2.7c0.6-0.6,1.4-0.8,2.4-0.8c1,0,1.8,0.3,2.4,0.8c0.6,0.6,0.9,1.5,0.9,2.7
			v1.8c0,1.2-0.3,2.1-0.9,2.7c-0.6,0.6-1.4,0.8-2.4,0.8c-1,0-1.8-0.3-2.4-0.8C269.1,71.9,268.8,71,268.8,69.7z M274.2,69.7v-1.6
			c0-0.9-0.2-1.6-0.6-2c-0.4-0.4-0.9-0.6-1.5-0.6c-0.7,0-1.2,0.2-1.6,0.6c-0.4,0.4-0.6,1-0.6,2v1.6c0,0.9,0.2,1.6,0.6,2
			c0.4,0.4,0.9,0.6,1.6,0.6c0.6,0,1.2-0.2,1.5-0.6C274,71.3,274.2,70.6,274.2,69.7z"/>
	</g>
</g>
</svg>
