<?xml version="1.0" standalone="no"?>
<!DOCTYPE svg PUBLIC "-//W3C//DTD SVG 20010904//EN"
 "http://www.w3.org/TR/2001/REC-SVG-20010904/DTD/svg10.dtd">
<svg version="1.0" xmlns="http://www.w3.org/2000/svg"
 width="489.000000pt" height="489.000000pt" viewBox="0 0 489.000000 489.000000"
 preserveAspectRatio="xMidYMid meet">
<metadata>
Created by potrace 1.11, written by Peter Selinger 2001-2013
</metadata>
<g transform="translate(0.000000,489.000000) scale(0.100000,-0.100000)"
fill="#000000" stroke="none">
<path d="M2460 4811 c-101 -21 -178 -110 -181 -209 -3 -81 23 -138 88 -191
l37 -30 0 -312 1 -313 -356 -357 c-196 -196 -363 -359 -370 -361 -7 -2 -152
136 -322 306 l-310 311 -1 113 -1 114 42 34 c81 66 109 185 64 273 -23 45 -96
111 -123 111 -10 0 -18 4 -18 10 0 14 -121 4 -157 -15 -43 -21 -92 -73 -111
-115 -21 -50 -19 -138 7 -187 11 -23 40 -57 63 -78 l43 -36 0 -152 1 -152 350
-354 351 -354 0 -383 c0 -211 -3 -384 -7 -384 -4 0 -64 56 -133 124 -124 125
-124 125 -120 166 3 22 2 48 -3 58 -4 9 -8 22 -9 27 -6 29 -18 55 -26 55 -5 0
-9 5 -9 11 0 31 -103 88 -169 93 -43 3 -105 -18 -150 -53 -35 -27 -79 -109
-85 -158 -6 -53 26 -129 76 -177 54 -54 107 -71 193 -61 l60 6 618 -615 617
-615 0 -216 0 -217 -45 -40 c-47 -42 -90 -111 -80 -128 3 -6 2 -10 -3 -10 -9
0 -8 -48 1 -85 3 -11 6 -25 6 -31 1 -6 17 -32 36 -56 88 -116 248 -120 348 -9
21 23 35 46 32 51 -3 4 -1 10 5 12 25 8 16 164 -10 188 -3 3 -15 19 -27 35
-12 17 -33 37 -47 45 l-26 13 0 223 0 224 285 284 285 284 0 458 0 458 189
186 189 185 45 -9 c25 -5 53 -5 63 -1 11 5 23 7 27 6 13 -2 62 26 94 56 71 67
91 167 51 255 -26 57 -87 114 -129 122 -13 3 -24 5 -24 6 0 7 -97 5 -101 -2
-3 -5 -9 -6 -14 -3 -4 3 -30 -10 -56 -28 -33 -22 -57 -49 -77 -87 -26 -50 -28
-61 -23 -121 l6 -66 -170 -166 -170 -165 -161 160 c-88 88 -159 166 -157 173
2 8 108 120 236 250 l232 237 0 283 0 283 35 26 c52 40 87 107 92 177 3 40 1
59 -7 59 -6 0 -8 5 -5 10 8 13 -24 66 -62 102 -104 99 -282 66 -350 -65 -50
-97 -28 -196 62 -275 l45 -40 0 -238 c0 -132 -4 -245 -9 -252 -4 -7 -130 -136
-280 -286 l-272 -274 255 -256 254 -256 0 -410 c0 -265 -3 -412 -10 -416 -5
-3 -119 104 -253 240 -220 221 -243 248 -239 273 3 15 9 32 13 38 12 14 5 108
-9 134 -6 12 -8 21 -5 21 3 0 -6 12 -20 27 -14 15 -25 31 -25 35 0 4 -20 19
-46 34 -74 43 -174 38 -241 -13 -29 -23 -78 -87 -78 -105 0 -3 -3 -10 -7 -14
-12 -11 -10 -91 3 -134 14 -46 73 -111 122 -134 20 -9 58 -19 83 -20 46 -4 48
-6 300 -260 140 -142 254 -261 254 -266 0 -5 -71 -81 -159 -169 l-158 -160
-211 212 c-116 117 -286 288 -377 380 l-165 168 0 469 0 468 420 421 c231 231
420 426 421 433 0 7 1 165 1 352 1 368 -3 341 55 386 68 52 96 154 68 241 -34
102 -152 172 -255 150z"/>
<path d="M3943 2673 c-58 -20 -125 -87 -142 -142 -7 -24 -11 -68 -9 -97 l3
-54 -130 -132 -131 -133 1 -423 0 -422 -168 -168 -167 -167 -68 -1 c-112 -1
-194 -61 -223 -163 -64 -222 209 -381 372 -217 53 52 71 106 64 183 l-6 66
193 194 193 193 0 426 1 425 106 106 c70 68 111 102 119 97 18 -11 98 -13 105
-3 3 5 9 7 14 4 5 -3 11 -1 15 5 4 6 10 8 14 5 14 -8 91 66 113 109 87 170
-88 370 -269 309z"/>
<path d="M976 1669 c-42 -23 -96 -76 -96 -95 0 -6 -7 -17 -15 -24 -9 -7 -13
-21 -10 -31 3 -9 2 -20 -3 -23 -11 -6 -9 -35 7 -92 14 -52 72 -119 116 -135
19 -7 35 -16 35 -20 0 -3 28 -5 63 -4 l62 2 198 -198 c169 -169 197 -202 192
-220 -39 -121 70 -270 202 -278 131 -8 237 92 237 224 0 144 -133 254 -269
222 -11 -2 -27 -1 -35 3 -8 5 -96 90 -195 190 -118 119 -179 187 -177 198 2 9
4 44 5 77 2 93 -51 175 -133 208 -55 22 -138 20 -184 -4z"/>
</g>
</svg>
